<svg xmlns="http://www.w3.org/2000/svg" viewBox="0 0 577.7 77.3" enable-background="new 0 0 577.7 77.3"><style type="text/css">.st0{opacity:0.4;fill:url(#SVGID_1_);enable-background:new ;} .st1{opacity:0.4;fill:url(#SVGID_2_);enable-background:new ;} .st2{opacity:0.4;fill:url(#SVGID_3_);enable-background:new ;} .st3{opacity:0.4;fill:url(#SVGID_4_);enable-background:new ;} .st4{opacity:0.4;fill:url(#SVGID_5_);enable-background:new ;} .st5{opacity:0.4;fill:url(#SVGID_6_);enable-background:new ;} .st6{opacity:0.4;fill:url(#SVGID_7_);enable-background:new ;} .st7{opacity:0.4;fill:url(#SVGID_8_);enable-background:new ;} .st8{opacity:0.4;fill:url(#SVGID_9_);enable-background:new ;} .st9{fill:url(#SVGID_10_);}</style><radialGradient id="SVGID_1_" cx="478.333" cy="40.167" r="31.869" gradientTransform="matrix(1 0 0 -1 0 79.333)" gradientUnits="userSpaceOnUse"><stop offset="0" stop-color="#6D6460"/><stop offset=".371" stop-color="#695F5C"/><stop offset=".788" stop-color="#5C534F"/><stop offset="1" stop-color="#534B47"/></radialGradient><path class="st0" d="M507.3 20.7v-16h-58v19h20v50h19v-50h19z"/><radialGradient id="SVGID_2_" cx="78.333" cy="40.167" r="25.212" gradientTransform="matrix(1 0 0 -1 0 79.333)" gradientUnits="userSpaceOnUse"><stop offset="0" stop-color="#6D6460"/><stop offset=".371" stop-color="#695F5C"/><stop offset=".788" stop-color="#5C534F"/><stop offset="1" stop-color="#534B47"/></radialGradient><path class="st1" d="M69.3 8.3v65.4h18v-69h-18z"/><radialGradient id="SVGID_3_" cx="31.418" cy="39.844" r="32.619" gradientTransform="matrix(1 0 0 -1 0 79.333)" gradientUnits="userSpaceOnUse"><stop offset="0" stop-color="#6D6460"/><stop offset=".371" stop-color="#695F5C"/><stop offset=".788" stop-color="#5C534F"/><stop offset="1" stop-color="#534B47"/></radialGradient><path class="st2" d="M58.3 12.3c-7.2-5.8-16.1-8.8-27.3-8.8-15.8 0-25.7 8.9-25.7 21.1v.2c0 .6 0 1.2.1 1.7l-.1 1.7v.2c0 13.6 11 17.5 25 20.7 6.9 1.6 9.8 2.9 10.8 4.6-.9 1.8-3.3 2.8-7.1 2.8-7.6 0-14.9-2.7-21.4-7.9l-10.2 12.2v3.6c8.1 7.3 19.3 10.9 31 10.9 16 0 26.8-8 26.8-21.5v-.2c0-.5 0-1.1-.1-1.6 0-.6.1-1.2.1-1.9v-.2c0-12.4-9.5-17.3-24.7-20.6-7.1-1.6-10.1-2.8-11.1-4.6.8-1.5 2.8-2.6 6.2-2.6 5.8 0 12.4 2.3 18.5 6.5l9.1-12.9.1-3.4z"/><radialGradient id="SVGID_4_" cx="130.833" cy="40.167" r="33.034" gradientTransform="matrix(1 0 0 -1 0 79.333)" gradientUnits="userSpaceOnUse"><stop offset="0" stop-color="#6D6460"/><stop offset=".371" stop-color="#695F5C"/><stop offset=".788" stop-color="#5C534F"/><stop offset="1" stop-color="#534B47"/></radialGradient><path class="st3" d="M124.8 4.7h-25.5v69h25.1c23.8 0 37.9-13.5 37.9-32.6v-3.8c0-19-13.9-32.6-37.5-32.6zm.3 19c10.3 0 17.4 6 18.1 15.5-.8 9.6-7.8 15.5-18.1 15.5h-7.8v-31h7.8z"/><radialGradient id="SVGID_5_" cx="344.433" cy="40.667" r="35.963" gradientTransform="matrix(1 0 0 -1 0 79.333)" gradientUnits="userSpaceOnUse"><stop offset="0" stop-color="#6D6460"/><stop offset=".371" stop-color="#695F5C"/><stop offset=".788" stop-color="#5C534F"/><stop offset="1" stop-color="#534B47"/></radialGradient><path class="st4" d="M381.3 70.3l-28.1-66.6h-17.6l-28.1 66.5v3.5h19.2l4.7-11h25.5l4.8 11h19.6v-3.4zm-37-40.7l5.9 15.1h-11.9l6-15.1z"/><radialGradient id="SVGID_6_" cx="416.833" cy="40.217" r="32.545" gradientTransform="matrix(1 0 0 -1 0 79.333)" gradientUnits="userSpaceOnUse"><stop offset="0" stop-color="#6D6460"/><stop offset=".371" stop-color="#695F5C"/><stop offset=".788" stop-color="#5C534F"/><stop offset="1" stop-color="#534B47"/></radialGradient><path class="st5" d="M447.3 70.5l-13.8-20c7.2-4.1 11.8-10.2 11.8-19.5v-.2c0-.5 0-1.1-.1-1.6l.1-1.8v-.2c0-6.5-2.1-11.5-5.9-15.3-4.4-4.5-11.5-7.3-21.6-7.3h-31.5v69.1h18v-19h8.6l13.3 19h21.1v-3.2zm-30.4-33.8h-12.6v-13h12.6c5.4 0 9 2.5 9.7 6.6-.8 3.8-4.2 6.4-9.7 6.4z"/><radialGradient id="SVGID_7_" cx="272.333" cy="40.167" r="32.328" gradientTransform="matrix(1 0 0 -1 0 79.333)" gradientUnits="userSpaceOnUse"><stop offset="0" stop-color="#6D6460"/><stop offset=".371" stop-color="#695F5C"/><stop offset=".788" stop-color="#5C534F"/><stop offset="1" stop-color="#534B47"/></radialGradient><path class="st6" d="M284.3 8.9v20.8h-24v-25h-18v69h18v-25h24v25h18v-69l-18 .1z"/><radialGradient id="SVGID_8_" cx="202.333" cy="40.167" r="33.273" gradientTransform="matrix(1 0 0 -1 0 79.333)" gradientUnits="userSpaceOnUse"><stop offset="0" stop-color="#6D6460"/><stop offset=".371" stop-color="#695F5C"/><stop offset=".788" stop-color="#5C534F"/><stop offset="1" stop-color="#534B47"/></radialGradient><path class="st7" d="M196.2 4.7h-25.9v69h25.6c23.8 0 38.4-13.5 38.4-32.6v-3.8c0-19-14.5-32.6-38.1-32.6zm.3 19c10.3 0 17.4 6 18.1 15.5-.8 9.6-7.8 15.5-18.1 15.5h-7.2v-31h7.2z"/><radialGradient id="SVGID_9_" cx="537.333" cy="40.667" r="35.974" gradientTransform="matrix(1 0 0 -1 0 79.333)" gradientUnits="userSpaceOnUse"><stop offset="0" stop-color="#6D6460"/><stop offset=".371" stop-color="#695F5C"/><stop offset=".788" stop-color="#5C534F"/><stop offset="1" stop-color="#534B47"/></radialGradient><path class="st8" d="M574.1 70.3l-28.1-66.6h-17.7l-28 66.5v3.5h19.2l4.7-11h25.5l4.8 11h19.8l-.2-3.4zm-37.1-40.7l5.9 15.1h-11.9l6-15.1z"/><radialGradient id="SVGID_10_" cx="288.283" cy="41.617" r="203.494" gradientTransform="matrix(1 0 0 -1 0 79.333)" gradientUnits="userSpaceOnUse"><stop offset="0" stop-color="#6D6460"/><stop offset=".371" stop-color="#695F5C"/><stop offset=".788" stop-color="#5C534F"/><stop offset="1" stop-color="#534B47"/></radialGradient><path class="st9" d="M2.5 60.9l10.2-12.2c6.5 5.2 13.8 7.9 21.4 7.9 4.9 0 7.5-1.7 7.5-4.5v-.2c0-2.7-2.2-4.2-11.1-6.3-14.1-3.2-24.9-7.2-24.9-20.7v-.2c0-12.3 9.7-21.1 25.6-21.1 11.2 0 20 3 27.2 8.8l-9.1 12.9c-6-4.2-12.6-6.5-18.5-6.5-4.4 0-6.6 1.9-6.6 4.2v.2c0 3 2.3 4.3 11.4 6.4 15.2 3.3 24.6 8.2 24.6 20.6v.2c0 13.5-10.7 21.5-26.7 21.5-11.8-.1-22.9-3.7-31-11zm66.5-56.2h18.4v66h-18.4v-66zm30.4 0h25.5c23.6 0 37.3 13.6 37.3 32.6v.2c0 19-13.9 33.2-37.6 33.2h-25.1v-66h-.1zm25.7 49.8c10.9 0 18.2-6 18.2-16.7v-.2c0-10.6-7.3-16.7-18.2-16.7h-7.5v33.6h7.5zm45.7-49.8h25.5c23.6 0 37.3 13.6 37.3 32.6v.2c0 19-13.9 33.2-37.6 33.2h-25.1v-66h-.1zm25.7 49.8c10.9 0 18.2-6 18.2-16.7v-.2c0-10.6-7.3-16.7-18.2-16.7h-7.5v33.6h7.5zm45.7-49.8h18.3v24.7h23.5v-24.7h18.3v66h-18.3v-25.1h-23.5v25.1h-18.3v-66zm93.4-.5h17.6l28.1 66.5h-19.6l-4.8-11.8h-25.5l-4.7 11.8h-19.2l28.1-66.5zm16 40.5l-7.4-18.8-7.4 18.8h14.8zm35-40h31.2c10.1 0 17.1 2.6 21.5 7.2 3.9 3.8 5.8 8.9 5.8 15.4v.2c0 10.1-5.4 16.8-13.6 20.3l15.7 23h-21.1l-13.3-20h-8v20h-18.3l.1-66.1zm30.3 31.7c6.2 0 9.8-3 9.8-7.8v-.2c0-5.2-3.8-7.8-9.9-7.8h-12v15.8h12.1zm52.6-15.7h-19.8v-16h57.9v16h-19.8v50h-18.3v-50zm58.8-16.5h17.6l28.1 66.5h-19.6l-4.8-11.8h-25.5l-4.7 11.8h-19.2l28.1-66.5zm16.1 40.5l-7.4-18.8-7.4 18.8h14.8z"/></svg>