<svg xmlns="http://www.w3.org/2000/svg" viewBox="0 0 102 124" enable-background="new 0 0 102 124"><style type="text/css">.st0{opacity:0.5;} .st1{fill:url(#SVGID_1_);}</style><g class="st0"><radialGradient id="SVGID_1_" cx="50.037" cy="-1363.837" r="55.495" gradientTransform="matrix(1.004 0 0 -1 .623 -1301.353)" gradientUnits="userSpaceOnUse"><stop offset="0" stop-color="#fff"/><stop offset="1" stop-color="#C0BBBA"/></radialGradient><path class="st1" d="M94.6 118.5c4.8-10.8 5.1-21.9 5.1-21.9s.4-6.2-2.3-15.2c-.7-2.3-1.6-4.5-2.7-6.6-2.9-4.9-7.9-9.9-12.4-15.5-2.8-3.5-5.4-7.2-7-11.1-7.2-17.2-3.7-29.4-3.7-29.4s-5.4 11.1-2.5 30c.1 1 .3 1.9.5 2.8 2.3 10.2 6.9 15.7 11 22.3 3.7 6 9.3 20.6 1.9 29.3-6.4 7.6-14.2 8.6-21.2 3.2-5.3-4-6.6-12.9 3.2-20.9 11-8.9 7-17.5 6.6-18.5-1-2.6-2.7-6.1-4.6-9.7-2-4.4-6.3-12.4-7.1-16.7-3.2-17.6 4-28.2 4-28.2s-3.6 2.6-7.2 13.4c-3.4 10.6-1.1 20.9.9 27.8.9 3.1 2.6 7.7 3.3 12.4 1.7 10.7-6 12.3-8.9 12.3-2.7 0-9.3-.8-9.3-11.3 0-3.3 1-7.5 2.3-11.2 2.7-7.8 5.1-14.7 5.4-27 .4-14.8-8-27.8-8-27.8s7.4 17.5 3.3 31.9c-3 10.9-6 17.3-9.2 24.6-1.5 3.3-3.5 6.7-4.6 9.9-1.5 5-4.3 9.4 6.7 18.3 9.8 8 8.5 16.9 3.2 20.9-7 5.3-15.5 4.3-22-3.2-7.3-8.6-1-23.3 2.7-29.3 4.2-6.6 8.7-12.3 11.1-22.6.2-.8.3-1.7.5-2.6 2.8-18.8-1.5-30.9-1.5-30.9s2.4 13-4.8 30.3c-1.5 3.5-3.5 6.7-5.9 9.7-5.2 6.8-11.7 12.7-15.3 20.5-3.1 6.7-4 13.4-4.1 17.1v1.1c0 .9 0 1.8.1 2.7.3 2.9 1.9 14.5 8.4 24.5h80.7c1.3-1.7 2.5-3.5 3.4-5.4z"/></g></svg>
